IKResults
version=1
nRows=11
nColumns=63
inDegrees=yes

Units are S.I. units (second, meters, Newtons, ...)
If the header above contains a line with 'inDegrees', this indicates whether rotational values are in degrees (yes) or radians (no).

endheader
time	pelvis_tilt	pelvis_list	pelvis_rotation	pelvis_tx	pelvis_ty	pelvis_tz	hip_flexion_r	hip_adduction_r	hip_rotation_r	knee_angle_r	knee_angle_r_beta	ankle_angle_r	subtalar_angle_r	mtp_angle_r	hip_flexion_l	hip_adduction_l	hip_rotation_l	knee_angle_l	knee_angle_l_beta	ankle_angle_l	subtalar_angle_l	mtp_angle_l	L5_S1_Flex_Ext	L5_S1_Lat_Bending	L5_S1_axial_rotation	L4_L5_Flex_Ext	L4_L5_Lat_Bending	L4_L5_axial_rotation	L3_L4_Flex_Ext	L3_L4_Lat_Bending	L3_L4_axial_rotation	L2_L3_Flex_Ext	L2_L3_Lat_Bending	L2_L3_axial_rotation	L1_L2_Flex_Ext	L1_L2_Lat_Bending	L1_L2_axial_rotation	L1_T12_Flex_Ext	L1_T12_Lat_Bending	L1_T12_axial_rotation	Abs_r3	Abs_r2	Abs_r1	Abs_t1	Abs_t2	neck_flexion	neck_bending	neck_rotation	arm_flex_r	arm_add_r	arm_rot_r	elbow_flex_r	pro_sup_r	wrist_flex_r	wrist_dev_r	arm_flex_l	arm_add_l	arm_rot_l	elbow_flex_l	pro_sup_l	wrist_flex_l	wrist_dev_l
      0.03333333	     63.97280842	    -60.28757627	     22.53377663	     -1.00680602	      0.67176453	     -0.10755504	      3.65953688	      0.26526783	    -25.70915526	     19.65333706	      0.34301544	      0.00000000	      0.00000000	      0.00000000	     19.30423852	      1.65589275	     22.33172330	     26.70515956	      0.46609296	      0.00000000	      0.00000000	      0.00000000	      3.07307676	     -0.45728598	     -3.73736188	      5.70701086	     -0.60819036	     -3.97094700	      5.04875782	     -1.11184514	     -3.97094700	      3.51221943	     -1.11184514	     -3.27019164	      2.85365908	     -0.93249758	     -3.03660653	      1.75595606	     -0.70833599	     -2.80302141	     21.95068002	     -5.17291050	    -20.78608556	      0.00000000	      0.00000000	      9.10366728	     -6.90120296	    -44.86033642	    -60.00159716	    -34.03443451	      5.61199787	     90.04489216	     89.99559364	      0.00000000	      0.00000000	     -6.72629786	     -6.25281390	     54.57429031	     34.83654896	     89.99559364	      0.00000000	      0.00000000
      0.06666667	     64.28889739	    -60.42289331	     22.51373962	     -1.00768769	      0.67133524	     -0.10676080	      3.83128183	      0.44465213	    -25.75426904	     19.97769584	      0.34867657	      0.00000000	      0.00000000	      0.00000000	     19.42124497	      1.33779079	     21.99858682	     26.93924367	      0.47017850	      0.00000000	      0.00000000	      0.00000000	      3.04402218	     -0.41955648	     -3.77480387	      5.65305360	     -0.55801011	     -4.01072911	      5.00102405	     -1.02010961	     -4.01072911	      3.47901295	     -1.02010961	     -3.30295338	      2.82667900	     -0.85555956	     -3.06702814	      1.73935428	     -0.64989298	     -2.83110290	     21.74314605	     -4.74610676	    -20.99432666	      0.00000000	      0.00000000	      8.69093216	     -7.37958595	    -44.85262928	    -61.86669820	    -36.21069691	      5.30387091	     93.18891968	     89.99559364	      0.00000000	      0.00000000	     -6.78183670	     -6.33089720	     54.47331808	     35.05045568	     89.99559364	      0.00000000	      0.00000000
      0.10000000	     62.77101210	    -61.14029482	     20.92588039	     -1.00812915	      0.67074702	     -0.10470087	      5.21032732	      0.86623493	    -26.25303194	     20.29972194	      0.35429699	      0.00000000	      0.00000000	      0.00000000	     20.94983981	      0.75988841	     21.31421084	     27.63598343	      0.48233890	      0.00000000	      0.00000000	      0.00000000	      3.19806729	     -0.33566145	     -3.82939842	      5.93913077	     -0.44642973	     -4.06873582	      5.25410475	     -0.81612724	     -4.06873582	      3.65507111	     -0.81612724	     -3.35072362	      2.96972529	     -0.68448082	     -3.11138622	      1.82737565	     -0.51993958	     -2.87204882	     22.84347486	     -3.79706943	    -21.29796520	      0.00000000	      0.00000000	      7.70562888	     -8.45770949	    -44.83382073	    -65.82974469	    -39.06356104	      3.55132896	     97.95139239	     89.99559364	      0.00000000	      0.00000000	     -7.47415933	     -6.34366807	     52.84839808	     35.46721817	     89.99559364	      0.00000000	      0.00000000
      0.13333333	     63.53733874	    -61.27500951	     21.13668740	     -1.01092905	      0.67016954	     -0.10341923	      5.54502075	      1.20037045	    -26.33208017	     21.00884421	      0.36667350	      0.00000000	      0.00000000	      0.00000000	     21.18883591	      0.12898685	     20.43441768	     28.17862979	      0.49180987	      0.00000000	      0.00000000	      0.00000000	      3.11595302	     -0.29920027	     -3.81211002	      5.78663636	     -0.39793636	     -4.05036689	      5.11919922	     -0.72747554	     -4.05036689	      3.56122271	     -0.72747554	     -3.33559626	      2.89347398	     -0.61012919	     -3.09733939	      1.78045556	     -0.46346122	     -2.85908251	     22.25694085	     -3.38461330	    -21.20181227	      0.00000000	      0.00000000	      6.80224143	     -9.05297226	    -44.81171316	    -67.87471347	    -41.26396665	      2.69359055	    101.43955608	     89.99559364	      0.00000000	      0.00000000	     -7.43616030	     -6.88409969	     52.49095839	     35.83334871	     89.99559364	      0.00000000	      0.00000000
      0.16666667	     63.16225834	    -61.69540480	     20.34981206	     -1.01339143	      0.67013935	     -0.10211305	      6.45648418	      1.61977276	    -26.87058479	     21.57277214	      0.37651590	      0.00000000	      0.00000000	      0.00000000	     22.16440303	     -0.71553317	     18.95691776	     28.89221562	      0.50426429	      0.00000000	      0.00000000	      0.00000000	      3.13750601	     -0.26511306	     -3.60972902	      5.82666242	     -0.35260037	     -3.83533709	      5.15460863	     -0.64459589	     -3.83533709	      3.58585562	     -0.64459589	     -3.15851289	      2.91348808	     -0.54061855	     -2.93290483	      1.79277094	     -0.41066013	     -2.70729677	     22.41089170	     -2.99901194	    -20.07622990	      0.00000000	      0.00000000	      6.13705673	     -9.41189058	    -44.78602402	    -68.05867845	    -41.21137196	      2.53894765	    102.56294915	     89.99559364	      0.00000000	      0.00000000	     -7.48245032	     -7.35386837	     51.52122339	     36.23807094	     89.99559364	      0.00000000	      0.00000000
      0.20000000	     62.65898454	    -62.04387538	     19.68528019	     -1.01612265	      0.67034802	     -0.10183373	      7.35933649	      1.90857905	    -27.55015447	     22.15880590	      0.38674412	      0.00000000	      0.00000000	      0.00000000	     23.09570369	     -1.28086772	     18.64270097	     29.53568081	      0.51549488	      0.00000000	      0.00000000	      0.00000000	      3.16357688	     -0.27738586	     -3.26337388	      5.87507862	     -0.36892319	     -3.46733474	      5.19744045	     -0.67443598	     -3.46733474	      3.61565201	     -0.67443598	     -2.85545214	      2.93769749	     -0.56564524	     -2.65149127	      1.80766783	     -0.42967069	     -2.44753041	     22.59711329	     -3.13784431	    -18.14990648	      0.00000000	      0.00000000	      5.25086933	     -8.99409940	    -44.77391995	    -64.26267147	    -38.69621364	      4.85484065	     99.90339142	     89.99559364	      0.00000000	      0.00000000	     -7.22588034	     -7.96638211	     51.09819757	     36.22874087	     89.99559364	      0.00000000	      0.00000000
      0.23333333	     62.33428646	    -61.70552521	     18.82489588	     -1.02099639	      0.67168718	     -0.10208693	      8.06404673	      1.55828538	    -27.90416863	     23.14094410	      0.40388567	      0.00000000	      0.00000000	      0.00000000	     23.40835794	     -1.76782613	     16.77679800	     29.36416917	      0.51250143	      0.00000000	      0.00000000	      0.00000000	      3.14190874	     -0.38988112	     -2.78284792	      5.83483872	     -0.51854189	     -2.95677591	      5.16184187	     -0.94795696	     -2.95677591	      3.59088750	     -0.94795696	     -2.43499193	      2.91757646	     -0.79504559	     -2.26106393	      1.79528665	     -0.60392586	     -2.08713594	     22.44233994	     -4.41041324	    -15.47736527	      0.00000000	      0.00000000	      4.44785809	     -7.57727510	    -44.76826871	    -55.99133840	    -33.90843657	      9.67407209	     92.76576798	     89.99559364	      0.00000000	      0.00000000	     -7.15574221	     -9.13584707	     50.13999994	     36.52461752	     89.99559364	      0.00000000	      0.00000000
      0.26666667	     64.79114505	    -60.87476589	     20.41113496	     -1.02909564	      0.67212040	     -0.10306963	      7.43504746	      1.37213210	    -27.01956735	     24.21926324	      0.42270589	      0.00000000	      0.00000000	      0.00000000	     22.53200481	     -2.33505990	     15.00820931	     29.57673174	      0.51621135	      0.00000000	      0.00000000	      0.00000000	      2.83306428	     -0.52610357	     -2.46040113	      5.26128368	     -0.69971774	     -2.61417620	      4.65444131	     -1.27916821	     -2.61417620	      3.23790917	     -1.27916821	     -2.15285099	      2.63078349	     -1.07283040	     -1.99907592	      1.61881293	     -0.81493443	     -1.84530085	     20.23629486	     -5.95138878	    -13.68401298	      0.00000000	      0.00000000	      3.88353443	     -5.75203564	    -44.75324472	    -44.03769467	    -27.94024802	     15.73185715	     81.26906122	     89.99559364	      0.00000000	      0.00000000	     -7.28502298	    -10.64497128	     46.16055145	     37.66635738	     89.99559364	      0.00000000	      0.00000000
      0.30000000	     66.96626092	    -60.08270430	     22.22732346	     -1.03752930	      0.67149875	     -0.10397402	      6.86831040	      0.95175615	    -27.38142425	     25.51447870	      0.44531166	      0.00000000	      0.00000000	      0.00000000	     22.01676698	     -2.76479351	     14.03201982	     30.00104786	      0.52361706	      0.00000000	      0.00000000	      0.00000000	      2.54418175	     -0.64730548	     -2.51340651	      4.72479994	     -0.86091628	     -2.67049441	      4.17983620	     -1.57385853	     -2.67049441	      2.90774533	     -1.57385853	     -2.19923069	      2.36252718	     -1.31998533	     -2.04214279	      1.45374545	     -1.00267618	     -1.88505488	     18.17283585	     -7.32244901	    -13.97881296	      0.00000000	      0.00000000	      2.83237455	     -4.55614698	    -44.69139078	    -31.27298255	    -21.90678865	     22.28419754	     66.57294773	     89.99559364	      0.00000000	      0.00000000	     -9.05746375	    -11.92641241	     37.77109651	     39.71216708	     89.99559364	      0.00000000	      0.00000000
      0.33333333	     68.32075178	    -59.75960240	     23.29671500	     -1.04503496	      0.67025715	     -0.10405839	      6.95269992	      0.76394373	    -27.28645227	     27.19438758	      0.47463160	      0.00000000	      0.00000000	      0.00000000	     22.33169625	     -3.55691681	     13.07136731	     30.91719739	      0.53960689	      0.00000000	      0.00000000	      0.00000000	      2.35248707	     -0.70291627	     -2.65397437	      4.36880373	     -0.93487864	     -2.81984777	      3.86490100	     -1.70907062	     -2.81984777	      2.68865747	     -1.70907062	     -2.32222757	      2.18451949	     -1.43338686	     -2.15635417	      1.34421111	     -1.08881730	     -1.99048078	     16.80357987	     -7.95152943	    -14.76060925	      0.00000000	      0.00000000	      1.67464279	     -4.43498939	    -44.52533615	    -20.59834860	    -16.12231145	     27.90013466	     50.84351298	     89.99559364	      0.00000000	      0.00000000	    -10.85672671	    -13.40987494	     34.07038329	     42.47749891	     89.99559364	      0.00000000	      0.00000000
      0.36666667	     69.35169205	    -59.87476475	     24.58359878	     -1.05066860	      0.66816837	     -0.10429911	      7.30095254	      0.70366843	    -27.95605059	     29.02932460	      0.50665729	      0.00000000	      0.00000000	      0.00000000	     23.24135919	     -4.42875288	     13.18827454	     32.25527874	      0.56296082	      0.00000000	      0.00000000	      0.00000000	      2.20486980	     -0.70906705	     -2.88995357	      4.09466370	     -0.94305917	     -3.07057567	      3.62238059	     -1.72402562	     -3.07057567	      2.51994569	     -1.72402562	     -2.52870937	      2.04744209	     -1.44592952	     -2.34808727	      1.25986260	     -1.09834486	     -2.16746518	     15.74916448	     -8.02110826	    -16.07305475	      0.00000000	      0.00000000	      1.15735927	     -4.74520930	    -44.05794623	    -13.00323545	    -11.49093937	     31.97807189	     37.28230219	     89.99559364	      0.00000000	      0.00000000	    -13.26910408	    -14.20289141	     26.36496011	     45.44292076	     89.99559364	      0.00000000	      0.00000000
